# xmcd
#
# Track frame offsets:
#	150
#	89658
#	118513
#	168753
#	195687
#	223403
#
# Disc length: 3360 seconds
#
# Revision: 0
# Processed by: cddbd v1.5.2PL0 Copyright (c) Steve Scherf et al.
# Submitted via: audiograbber 1.83.01
#
DISCID=540d1e06
DTITLE=Grateful Dead - 90-10-31 Wembley Arena, London, England
DYEAR=1900
DGENRE=
TTITLE0=Drums > Space
TTITLE1=All Along The Watchtowers
TTITLE2=Stella Blue
TTITLE3=Around and Around
TTITLE4=Good Lovin
TTITLE5=Werewolves Of London
EXTD=
EXTT0=
EXTT1=
EXTT2=
EXTT3=
EXTT4=
EXTT5=
PLAYORDER=
